<svg width="26" height="26" viewBox="0 0 26 26" fill="none" xmlns="http://www.w3.org/2000/svg">
<path fill-rule="evenodd" clip-rule="evenodd" d="M18.0916 9.98259C13.8097 9.98259 10.3329 13.4593 10.3329 17.7413C10.3329 22.0237 13.8097 25.5 18.0916 25.5C22.374 25.5 25.8504 22.0237 25.8504 17.7413C25.8504 13.4593 22.374 9.98259 18.0916 9.98259ZM0 12.5688V21.5743C0 22.9945 1.15119 24.1456 2.57134 24.1456H9.471C9.94687 24.1456 10.3329 23.7592 10.3329 23.2833C10.3329 22.8074 9.94687 22.4213 9.471 22.4213C9.471 22.4213 5.08144 22.4213 2.57134 22.4213C2.10333 22.4213 1.72429 22.0423 1.72429 21.5743V12.5688C1.72429 12.0934 1.33781 11.7069 0.861941 11.7069C0.386487 11.7069 0 12.0934 0 12.5688ZM17.2297 14.2824V17.7413C17.2297 18.0678 17.4143 18.3665 17.7064 18.5126L20.4615 19.8901C20.8869 20.1028 21.4053 19.9303 21.618 19.5045C21.8307 19.0791 21.6582 18.5606 21.2324 18.3479L18.954 17.2087V14.2824C18.954 13.8065 18.5675 13.42 18.0916 13.42C17.6162 13.42 17.2297 13.8065 17.2297 14.2824ZM4.72971 18.6036H7.31594C7.7914 18.6036 8.17788 18.2172 8.17788 17.7413C8.17788 17.2658 7.7914 16.8794 7.31594 16.8794H4.72971C4.25384 16.8794 3.86735 17.2658 3.86735 17.7413C3.86735 18.2172 4.25384 18.6036 4.72971 18.6036ZM4.72971 16.0174H7.31594C7.7914 16.0174 8.17788 15.6309 8.17788 15.1551C8.17788 14.6796 7.7914 14.2931 7.31594 14.2931H4.72971C4.25384 14.2931 3.86735 14.6796 3.86735 15.1551C3.86735 15.6309 4.25384 16.0174 4.72971 16.0174ZM4.72971 13.4312H7.31594C7.7914 13.4312 8.17788 13.0447 8.17788 12.5688C8.17788 12.0934 7.7914 11.7069 7.31594 11.7069H4.72971C4.25384 11.7069 3.86735 12.0934 3.86735 12.5688C3.86735 13.0447 4.25384 13.4312 4.72971 13.4312ZM12.0692 3.08624H6.89677V1.36194C6.89677 0.886073 6.51028 0.5 6.03441 0.5C5.55896 0.5 5.17247 0.886073 5.17247 1.36194V3.08624H2.57134C1.15119 3.08624 0 4.23742 0 5.65716V9.12065C0 9.59651 0.386487 9.98259 0.861941 9.98259C1.33781 9.98259 1.72429 9.59651 1.72429 9.12065V8.25871H24.1381V10.0095C24.1381 10.4854 24.5245 10.8718 25.0004 10.8718C25.4763 10.8718 25.8624 10.4854 25.8624 10.0095V5.65716C25.8624 4.97522 25.5913 4.32142 25.1092 3.83935C24.6272 3.35686 23.9734 3.08624 23.2914 3.08624H20.6899V1.36194C20.6899 0.886073 20.3038 0.5 19.8279 0.5C19.3521 0.5 18.9656 0.886073 18.9656 1.36194V3.08624H13.7931V1.36194C13.7931 0.886073 13.407 0.5 12.9312 0.5C12.4553 0.5 12.0692 0.886073 12.0692 1.36194V3.08624Z" fill="#FFCCA8"/>
</svg>
