<svg width="131" height="109" viewBox="0 0 131 109" fill="none" xmlns="http://www.w3.org/2000/svg">
<path d="M1.232 105.258V94.8278H4.662C5.698 94.8278 6.59867 95.0425 7.364 95.4718C8.12933 95.8918 8.722 96.4938 9.142 97.2778C9.562 98.0525 9.772 98.9718 9.772 100.036C9.772 101.09 9.562 102.01 9.142 102.794C8.722 103.578 8.12933 104.184 7.364 104.614C6.59867 105.043 5.698 105.258 4.662 105.258H1.232ZM2.352 104.208H4.662C5.46467 104.208 6.16 104.04 6.748 103.704C7.336 103.358 7.78867 102.873 8.106 102.248C8.43267 101.622 8.596 100.885 8.596 100.036C8.596 99.1865 8.43267 98.4538 8.106 97.8378C7.77933 97.2125 7.322 96.7318 6.734 96.3958C6.146 96.0505 5.45533 95.8778 4.662 95.8778H2.352V104.208ZM11.4686 105.258V97.7538H12.5186V98.9858L12.3786 98.8038C12.556 98.4491 12.822 98.1691 13.1766 97.9638C13.5406 97.7585 13.9793 97.6558 14.4926 97.6558H14.9686V98.7058H14.3106C13.7693 98.7058 13.3353 98.8738 13.0086 99.2098C12.682 99.5458 12.5186 100.022 12.5186 100.638V105.258H11.4686ZM18.3691 105.426C17.8931 105.426 17.4684 105.337 17.0951 105.16C16.7218 104.973 16.4278 104.721 16.2131 104.404C15.9984 104.086 15.8911 103.722 15.8911 103.312C15.8911 102.92 15.9751 102.565 16.1431 102.248C16.3111 101.921 16.5724 101.646 16.9271 101.422C17.2818 101.198 17.7344 101.039 18.2851 100.946L21.2251 100.456V101.408L18.5371 101.856C17.9958 101.949 17.6038 102.122 17.3611 102.374C17.1278 102.626 17.0111 102.924 17.0111 103.27C17.0111 103.606 17.1418 103.89 17.4031 104.124C17.6738 104.357 18.0191 104.474 18.4391 104.474C18.9524 104.474 19.4004 104.366 19.7831 104.152C20.1658 103.928 20.4644 103.629 20.6791 103.256C20.8938 102.882 21.0011 102.467 21.0011 102.01V100.106C21.0011 99.6578 20.8378 99.2938 20.5111 99.0138C20.1844 98.7338 19.7598 98.5938 19.2371 98.5938C18.7798 98.5938 18.3784 98.7105 18.0331 98.9438C17.6878 99.1678 17.4311 99.4618 17.2631 99.8258L16.3111 99.3078C16.4511 98.9905 16.6704 98.7011 16.9691 98.4398C17.2771 98.1785 17.6271 97.9731 18.0191 97.8238C18.4111 97.6651 18.8171 97.5858 19.2371 97.5858C19.7878 97.5858 20.2731 97.6931 20.6931 97.9078C21.1224 98.1225 21.4538 98.4211 21.6871 98.8038C21.9298 99.1771 22.0511 99.6111 22.0511 100.106V105.258H21.0011V103.76L21.1551 103.914C21.0244 104.194 20.8191 104.45 20.5391 104.684C20.2684 104.908 19.9464 105.09 19.5731 105.23C19.2091 105.36 18.8078 105.426 18.3691 105.426ZM25.8628 105.258L23.2868 97.7538H24.4768L26.6048 104.32H26.1848L28.1868 97.7538H29.2368L31.2388 104.32H30.8188L32.9608 97.7538H34.1368L31.5608 105.258H30.5108L28.5648 98.8318H28.8588L26.9128 105.258H25.8628ZM37.9 108.338C37.7506 108.338 37.5966 108.324 37.438 108.296C37.2886 108.277 37.1393 108.24 36.99 108.184V107.204C37.0833 107.213 37.2 107.227 37.34 107.246C37.4893 107.274 37.6386 107.288 37.788 107.288C38.2453 107.288 38.5953 107.19 38.838 106.994C39.0806 106.807 39.3186 106.443 39.552 105.902L40.028 104.782L40 105.706L36.822 97.7538H37.956L40.56 104.32H40.266L42.856 97.7538H44.018L40.588 106.21C40.4386 106.574 40.2473 106.919 40.014 107.246C39.79 107.572 39.5053 107.834 39.16 108.03C38.8146 108.235 38.3946 108.338 37.9 108.338ZM48.6291 105.426C47.9198 105.426 47.2758 105.258 46.6971 104.922C46.1184 104.576 45.6564 104.11 45.3111 103.522C44.9751 102.924 44.8071 102.248 44.8071 101.492C44.8071 100.745 44.9751 100.078 45.3111 99.4898C45.6471 98.9018 46.0998 98.4398 46.6691 98.1038C47.2478 97.7585 47.9011 97.5858 48.6291 97.5858C49.3571 97.5858 50.0058 97.7538 50.5751 98.0898C51.1538 98.4258 51.6064 98.8878 51.9331 99.4758C52.2691 100.064 52.4371 100.736 52.4371 101.492C52.4371 102.257 52.2644 102.938 51.9191 103.536C51.5738 104.124 51.1118 104.586 50.5331 104.922C49.9638 105.258 49.3291 105.426 48.6291 105.426ZM48.6291 104.376C49.1331 104.376 49.5858 104.25 49.9871 103.998C50.3978 103.746 50.7198 103.4 50.9531 102.962C51.1958 102.523 51.3171 102.033 51.3171 101.492C51.3171 100.95 51.1958 100.465 50.9531 100.036C50.7198 99.6065 50.3978 99.2658 49.9871 99.0138C49.5858 98.7618 49.1331 98.6358 48.6291 98.6358C48.1251 98.6358 47.6678 98.7618 47.2571 99.0138C46.8558 99.2658 46.5338 99.6065 46.2911 100.036C46.0484 100.465 45.9271 100.95 45.9271 101.492C45.9271 102.033 46.0484 102.523 46.2911 102.962C46.5338 103.4 46.8558 103.746 47.2571 103.998C47.6678 104.25 48.1251 104.376 48.6291 104.376ZM56.9489 105.426C56.4263 105.426 55.9503 105.304 55.5209 105.062C55.0916 104.81 54.7509 104.464 54.4989 104.026C54.2563 103.578 54.1349 103.064 54.1349 102.486V97.7538H55.1849V102.36C55.1849 102.761 55.2643 103.116 55.4229 103.424C55.5909 103.722 55.8196 103.956 56.1089 104.124C56.4076 104.292 56.7483 104.376 57.1309 104.376C57.5136 104.376 57.8543 104.292 58.1529 104.124C58.4516 103.946 58.6849 103.699 58.8529 103.382C59.0209 103.055 59.1049 102.668 59.1049 102.22V97.7538H60.1549V105.258H59.1049V103.802L59.3429 103.858C59.1656 104.343 58.8623 104.726 58.4329 105.006C58.0036 105.286 57.5089 105.426 56.9489 105.426ZM62.3143 105.258V97.7538H63.3643V98.9858L63.2243 98.8038C63.4017 98.4491 63.6677 98.1691 64.0223 97.9638C64.3863 97.7585 64.825 97.6558 65.3383 97.6558H65.8143V98.7058H65.1563C64.615 98.7058 64.181 98.8738 63.8543 99.2098C63.5277 99.5458 63.3643 100.022 63.3643 100.638V105.258H62.3143ZM72.0277 105.426C71.309 105.426 70.679 105.244 70.1377 104.88C69.5964 104.516 69.2044 104.021 68.9617 103.396L69.8437 102.976C70.0584 103.433 70.357 103.797 70.7397 104.068C71.1317 104.338 71.561 104.474 72.0277 104.474C72.4757 104.474 72.8537 104.366 73.1617 104.152C73.4697 103.928 73.6237 103.638 73.6237 103.284C73.6237 103.022 73.549 102.817 73.3997 102.668C73.2504 102.509 73.0777 102.388 72.8817 102.304C72.6857 102.22 72.513 102.159 72.3637 102.122L71.2857 101.814C70.595 101.618 70.0957 101.342 69.7877 100.988C69.4797 100.633 69.3257 100.222 69.3257 99.7558C69.3257 99.3171 69.4377 98.9345 69.6617 98.6078C69.8857 98.2811 70.189 98.0291 70.5717 97.8518C70.9544 97.6745 71.379 97.5858 71.8457 97.5858C72.4804 97.5858 73.0544 97.7538 73.5677 98.0898C74.0904 98.4165 74.459 98.8738 74.6737 99.4618L73.7777 99.8818C73.591 99.4618 73.3204 99.1351 72.9657 98.9018C72.6204 98.6591 72.233 98.5378 71.8037 98.5378C71.3837 98.5378 71.0477 98.6451 70.7957 98.8598C70.5437 99.0745 70.4177 99.3451 70.4177 99.6718C70.4177 99.9238 70.483 100.124 70.6137 100.274C70.7444 100.423 70.8937 100.535 71.0617 100.61C71.239 100.684 71.393 100.74 71.5237 100.778L72.7697 101.142C73.3764 101.319 73.8477 101.594 74.1837 101.968C74.529 102.341 74.7017 102.78 74.7017 103.284C74.7017 103.694 74.585 104.063 74.3517 104.39C74.1277 104.716 73.815 104.973 73.4137 105.16C73.0124 105.337 72.5504 105.426 72.0277 105.426ZM76.5468 105.258V97.7538H77.5968V105.258H76.5468ZM76.5468 96.3678V94.8278H77.5968V96.3678H76.5468ZM83.302 108.338C82.7886 108.338 82.3126 108.258 81.874 108.1C81.4446 107.941 81.0713 107.722 80.754 107.442C80.446 107.171 80.208 106.854 80.04 106.49L81.006 105.972C81.1553 106.326 81.4213 106.634 81.804 106.896C82.1866 107.157 82.6766 107.288 83.274 107.288C83.7313 107.288 84.1513 107.199 84.534 107.022C84.9166 106.844 85.2246 106.583 85.458 106.238C85.6913 105.892 85.808 105.468 85.808 104.964V103.298L85.976 103.452C85.7146 103.993 85.3273 104.413 84.814 104.712C84.3006 105.001 83.7406 105.146 83.134 105.146C82.434 105.146 81.804 104.978 81.244 104.642C80.684 104.306 80.2406 103.853 79.914 103.284C79.5966 102.705 79.438 102.066 79.438 101.366C79.438 100.656 79.5966 100.017 79.914 99.4478C80.2406 98.8785 80.6793 98.4258 81.23 98.0898C81.79 97.7538 82.4246 97.5858 83.134 97.5858C83.7406 97.5858 84.2913 97.7258 84.786 98.0058C85.29 98.2858 85.6866 98.6638 85.976 99.1398L85.808 99.4338V97.7538H86.858V104.964C86.858 105.608 86.704 106.182 86.396 106.686C86.0973 107.199 85.6773 107.6 85.136 107.89C84.604 108.188 83.9926 108.338 83.302 108.338ZM83.19 104.096C83.6753 104.096 84.114 103.974 84.506 103.732C84.898 103.48 85.2106 103.148 85.444 102.738C85.6866 102.318 85.808 101.86 85.808 101.366C85.808 100.871 85.6866 100.418 85.444 100.008C85.2106 99.5878 84.898 99.2565 84.506 99.0138C84.114 98.7618 83.6753 98.6358 83.19 98.6358C82.6953 98.6358 82.2473 98.7618 81.846 99.0138C81.4446 99.2565 81.1273 99.5831 80.894 99.9938C80.67 100.404 80.558 100.862 80.558 101.366C80.558 101.86 80.67 102.318 80.894 102.738C81.1273 103.148 81.44 103.48 81.832 103.732C82.2333 103.974 82.686 104.096 83.19 104.096ZM89.0155 105.258V97.7538H90.0655V99.2098L89.8275 99.1538C90.0142 98.6685 90.3175 98.2858 90.7375 98.0058C91.1668 97.7258 91.6615 97.5858 92.2215 97.5858C92.7535 97.5858 93.2295 97.7071 93.6495 97.9498C94.0788 98.1925 94.4148 98.5285 94.6575 98.9578C94.9095 99.3778 95.0355 99.8538 95.0355 100.386V105.258H93.9855V100.792C93.9855 100.334 93.9015 99.9471 93.7335 99.6298C93.5748 99.3125 93.3462 99.0698 93.0475 98.9018C92.7582 98.7245 92.4222 98.6358 92.0395 98.6358C91.6568 98.6358 91.3162 98.7245 91.0175 98.9018C90.7188 99.0698 90.4855 99.3171 90.3175 99.6438C90.1495 99.9611 90.0655 100.344 90.0655 100.792V105.258H89.0155ZM99.2109 105.426C98.7349 105.426 98.3102 105.337 97.9369 105.16C97.5636 104.973 97.2696 104.721 97.0549 104.404C96.8402 104.086 96.7329 103.722 96.7329 103.312C96.7329 102.92 96.8169 102.565 96.9849 102.248C97.1529 101.921 97.4142 101.646 97.7689 101.422C98.1236 101.198 98.5762 101.039 99.1269 100.946L102.067 100.456V101.408L99.3789 101.856C98.8376 101.949 98.4456 102.122 98.2029 102.374C97.9696 102.626 97.8529 102.924 97.8529 103.27C97.8529 103.606 97.9836 103.89 98.2449 104.124C98.5156 104.357 98.8609 104.474 99.2809 104.474C99.7942 104.474 100.242 104.366 100.625 104.152C101.008 103.928 101.306 103.629 101.521 103.256C101.736 102.882 101.843 102.467 101.843 102.01V100.106C101.843 99.6578 101.68 99.2938 101.353 99.0138C101.026 98.7338 100.602 98.5938 100.079 98.5938C99.6216 98.5938 99.2202 98.7105 98.8749 98.9438C98.5296 99.1678 98.2729 99.4618 98.1049 99.8258L97.1529 99.3078C97.2929 98.9905 97.5122 98.7011 97.8109 98.4398C98.1189 98.1785 98.4689 97.9731 98.8609 97.8238C99.2529 97.6651 99.6589 97.5858 100.079 97.5858C100.63 97.5858 101.115 97.6931 101.535 97.9078C101.964 98.1225 102.296 98.4211 102.529 98.8038C102.772 99.1771 102.893 99.6111 102.893 100.106V105.258H101.843V103.76L101.997 103.914C101.866 104.194 101.661 104.45 101.381 104.684C101.11 104.908 100.788 105.09 100.415 105.23C100.051 105.36 99.6496 105.426 99.2109 105.426ZM107.786 105.342C107.114 105.342 106.596 105.146 106.232 104.754C105.868 104.362 105.686 103.802 105.686 103.074V98.8038H104.3V97.7538H104.65C104.967 97.7538 105.219 97.6511 105.406 97.4458C105.593 97.2311 105.686 96.9651 105.686 96.6478V96.0178H106.736V97.7538H108.388V98.8038H106.736V103.074C106.736 103.326 106.773 103.55 106.848 103.746C106.923 103.932 107.049 104.082 107.226 104.194C107.413 104.306 107.66 104.362 107.968 104.362C108.043 104.362 108.131 104.357 108.234 104.348C108.337 104.338 108.425 104.329 108.5 104.32V105.258C108.388 105.286 108.262 105.304 108.122 105.314C107.982 105.332 107.87 105.342 107.786 105.342ZM113.004 105.426C112.481 105.426 112.005 105.304 111.576 105.062C111.146 104.81 110.806 104.464 110.554 104.026C110.311 103.578 110.19 103.064 110.19 102.486V97.7538H111.24V102.36C111.24 102.761 111.319 103.116 111.478 103.424C111.646 103.722 111.874 103.956 112.164 104.124C112.462 104.292 112.803 104.376 113.186 104.376C113.568 104.376 113.909 104.292 114.208 104.124C114.506 103.946 114.74 103.699 114.908 103.382C115.076 103.055 115.16 102.668 115.16 102.22V97.7538H116.21V105.258H115.16V103.802L115.398 103.858C115.22 104.343 114.917 104.726 114.488 105.006C114.058 105.286 113.564 105.426 113.004 105.426ZM118.369 105.258V97.7538H119.419V98.9858L119.279 98.8038C119.456 98.4491 119.722 98.1691 120.077 97.9638C120.441 97.7585 120.88 97.6558 121.393 97.6558H121.869V98.7058H121.211C120.67 98.7058 120.236 98.8738 119.909 99.2098C119.582 99.5458 119.419 100.022 119.419 100.638V105.258H118.369ZM126.515 105.426C125.815 105.426 125.181 105.258 124.611 104.922C124.051 104.576 123.608 104.105 123.281 103.508C122.955 102.91 122.791 102.234 122.791 101.478C122.791 100.722 122.95 100.054 123.267 99.4758C123.585 98.8878 124.014 98.4258 124.555 98.0898C125.106 97.7538 125.722 97.5858 126.403 97.5858C126.945 97.5858 127.425 97.6885 127.845 97.8938C128.275 98.0898 128.639 98.3605 128.937 98.7058C129.236 99.0418 129.465 99.4245 129.623 99.8538C129.782 100.274 129.861 100.708 129.861 101.156C129.861 101.249 129.857 101.356 129.847 101.478C129.838 101.59 129.824 101.706 129.805 101.828H123.463V100.848H129.203L128.699 101.268C128.783 100.754 128.723 100.297 128.517 99.8958C128.321 99.4851 128.037 99.1631 127.663 98.9298C127.29 98.6871 126.87 98.5658 126.403 98.5658C125.937 98.5658 125.503 98.6871 125.101 98.9298C124.709 99.1725 124.401 99.5131 124.177 99.9518C123.953 100.381 123.865 100.894 123.911 101.492C123.865 102.089 123.958 102.612 124.191 103.06C124.434 103.498 124.761 103.839 125.171 104.082C125.591 104.324 126.039 104.446 126.515 104.446C127.066 104.446 127.528 104.315 127.901 104.054C128.275 103.792 128.578 103.466 128.811 103.074L129.707 103.55C129.558 103.886 129.329 104.198 129.021 104.488C128.713 104.768 128.345 104.996 127.915 105.174C127.495 105.342 127.029 105.426 126.515 105.426Z" fill="#C6C6C6"/>
<path d="M26.7578 19.3358C27.7286 19.3358 28.5156 18.5488 28.5156 17.578V4.27343H41.8202C42.791 4.27343 43.578 3.4864 43.578 2.51562C43.578 1.54484 42.791 0.757812 41.8202 0.757812H26.7578C25.787 0.757812 25 1.54484 25 2.51562V17.578C25 18.5488 25.787 19.3358 26.7578 19.3358Z" fill="#C6C6C6"/>
<path d="M41.8202 57.2421H28.5156V43.9375C28.5156 42.9667 27.7286 42.1797 26.7578 42.1797C25.787 42.1797 25 42.9667 25 43.9375V58.9999C25 59.9707 25.787 60.7577 26.7578 60.7577H41.8202C42.791 60.7577 43.578 59.9707 43.578 58.9999C43.578 58.0291 42.791 57.2421 41.8202 57.2421Z" fill="#C6C6C6"/>
<path d="M83.2421 0.757812H68.1797C67.2089 0.757812 66.4219 1.54484 66.4219 2.51562C66.4219 3.4864 67.2089 4.27343 68.1797 4.27343H81.4843V17.578C81.4843 18.5488 82.2713 19.3358 83.2421 19.3358C84.2129 19.3358 84.9999 18.5488 84.9999 17.578V2.51562C84.9999 1.54484 84.2129 0.757812 83.2421 0.757812Z" fill="#C6C6C6"/>
<path d="M83.2421 42.1797C82.2713 42.1797 81.4843 42.9667 81.4843 43.9375V57.2421H68.1797C67.2089 57.2421 66.4219 58.0291 66.4219 58.9999C66.4219 59.9707 67.2089 60.7577 68.1797 60.7577H83.2421C84.2129 60.7577 84.9999 59.9707 84.9999 58.9999V43.9375C84.9999 42.9667 84.2129 42.1797 83.2421 42.1797Z" fill="#C6C6C6"/>
<path d="M83.239 25.2341C71.5847 25.2341 65.0999 34.6482 62.5281 34.6482C61.4929 34.6482 62.0495 32.1165 62.313 31.3134C62.692 30.1761 61.8442 28.9998 60.6454 28.9998C59.0549 28.9998 57.8295 30.4354 56.1335 32.4223C54.737 34.0585 52.6265 36.531 51.2313 36.531C48.9643 36.531 52.1476 29.0987 52.8035 27.7781C53.0759 27.2333 53.0469 26.5861 52.7266 26.0679C52.4063 25.5495 51.8404 25.2342 51.2313 25.2342C49.5125 25.2342 48.4032 27.0148 44.4334 33.823C42.8634 36.5156 41.0838 39.5673 39.4661 41.9583C37.6896 44.5839 36.7166 45.4954 36.287 45.8072C35.8123 44.4715 35.8815 40.1975 38.2497 32.1446C40.2714 25.2697 43.1489 18.7324 44.9429 16.9382C45.6294 16.2517 45.6294 15.1388 44.9429 14.4523C44.2566 13.7659 43.1435 13.7659 42.457 14.4523C39.824 17.0854 36.88 24.5877 35.1591 30.2121C31.4894 42.2045 31.5394 49.4606 36.1688 49.4606C38.9886 49.4606 41.816 45.258 47.0287 36.3499C47.3716 38.8369 49.0971 40.0466 51.2312 40.0466C54.1276 40.0466 56.5736 37.3162 58.5621 34.9919C58.7476 35.8312 59.5151 38.1638 62.5281 38.1638C67.4301 38.1638 72.3387 28.7497 83.239 28.7497C84.2097 28.7497 84.9968 27.9627 84.9968 26.9919C84.9968 26.0211 84.2097 25.2341 83.239 25.2341Z" fill="#C6C6C6"/>
</svg>
