<svg width="114" height="130" viewBox="0 0 114 130" fill="none" xmlns="http://www.w3.org/2000/svg">
<path d="M0.154 106.5L3.962 96.07H5.166L8.974 106.5H7.798L6.902 103.952H2.24L1.33 106.5H0.154ZM2.604 102.902H6.51L4.396 96.91H4.732L2.604 102.902ZM13.3254 106.668C12.6254 106.668 11.9954 106.5 11.4354 106.164C10.8754 105.819 10.432 105.352 10.1054 104.764C9.78804 104.167 9.62938 103.495 9.62938 102.748C9.62938 101.992 9.78804 101.32 10.1054 100.732C10.432 100.144 10.8707 99.682 11.4214 99.346C11.9814 99.0007 12.616 98.828 13.3254 98.828C13.9694 98.828 14.5434 98.968 15.0474 99.248C15.5514 99.528 15.948 99.906 16.2374 100.382L16.0694 100.676V95.902H17.1194V106.5H16.0694V104.82L16.2374 104.974C15.976 105.515 15.584 105.935 15.0614 106.234C14.548 106.523 13.9694 106.668 13.3254 106.668ZM13.3814 105.618C13.8854 105.618 14.338 105.492 14.7394 105.24C15.15 104.988 15.472 104.647 15.7054 104.218C15.948 103.779 16.0694 103.289 16.0694 102.748C16.0694 102.207 15.948 101.721 15.7054 101.292C15.472 100.853 15.15 100.508 14.7394 100.256C14.338 100.004 13.8854 99.878 13.3814 99.878C12.8867 99.878 12.4387 100.004 12.0374 100.256C11.636 100.508 11.3187 100.849 11.0854 101.278C10.8614 101.707 10.7494 102.197 10.7494 102.748C10.7494 103.289 10.8614 103.779 11.0854 104.218C11.3187 104.647 11.6314 104.988 12.0234 105.24C12.4247 105.492 12.8774 105.618 13.3814 105.618ZM22.6633 106.668C21.9633 106.668 21.3333 106.5 20.7733 106.164C20.2133 105.819 19.7699 105.352 19.4433 104.764C19.1259 104.167 18.9673 103.495 18.9673 102.748C18.9673 101.992 19.1259 101.32 19.4433 100.732C19.7699 100.144 20.2086 99.682 20.7593 99.346C21.3193 99.0007 21.9539 98.828 22.6633 98.828C23.3073 98.828 23.8813 98.968 24.3853 99.248C24.8893 99.528 25.2859 99.906 25.5753 100.382L25.4073 100.676V95.902H26.4573V106.5H25.4073V104.82L25.5753 104.974C25.3139 105.515 24.9219 105.935 24.3993 106.234C23.8859 106.523 23.3073 106.668 22.6633 106.668ZM22.7193 105.618C23.2233 105.618 23.6759 105.492 24.0773 105.24C24.4879 104.988 24.8099 104.647 25.0433 104.218C25.2859 103.779 25.4073 103.289 25.4073 102.748C25.4073 102.207 25.2859 101.721 25.0433 101.292C24.8099 100.853 24.4879 100.508 24.0773 100.256C23.6759 100.004 23.2233 99.878 22.7193 99.878C22.2246 99.878 21.7766 100.004 21.3753 100.256C20.9739 100.508 20.6566 100.849 20.4233 101.278C20.1993 101.707 20.0873 102.197 20.0873 102.748C20.0873 103.289 20.1993 103.779 20.4233 104.218C20.6566 104.647 20.9693 104.988 21.3613 105.24C21.7626 105.492 22.2153 105.618 22.7193 105.618ZM31.1461 106.5V96.07H32.2661V105.45H36.8861V106.5H31.1461ZM41.9436 106.668C41.2342 106.668 40.5902 106.5 40.0116 106.164C39.4329 105.819 38.9709 105.352 38.6256 104.764C38.2896 104.167 38.1216 103.49 38.1216 102.734C38.1216 101.987 38.2896 101.32 38.6256 100.732C38.9616 100.144 39.4142 99.682 39.9836 99.346C40.5622 99.0007 41.2156 98.828 41.9436 98.828C42.6716 98.828 43.3202 98.996 43.8896 99.332C44.4682 99.668 44.9209 100.13 45.2476 100.718C45.5836 101.306 45.7516 101.978 45.7516 102.734C45.7516 103.499 45.5789 104.181 45.2336 104.778C44.8882 105.366 44.4262 105.828 43.8476 106.164C43.2782 106.5 42.6436 106.668 41.9436 106.668ZM41.9436 105.618C42.4476 105.618 42.9002 105.492 43.3016 105.24C43.7122 104.988 44.0342 104.643 44.2676 104.204C44.5102 103.765 44.6316 103.275 44.6316 102.734C44.6316 102.193 44.5102 101.707 44.2676 101.278C44.0342 100.849 43.7122 100.508 43.3016 100.256C42.9002 100.004 42.4476 99.878 41.9436 99.878C41.4396 99.878 40.9822 100.004 40.5716 100.256C40.1702 100.508 39.8482 100.849 39.6056 101.278C39.3629 101.707 39.2416 102.193 39.2416 102.734C39.2416 103.275 39.3629 103.765 39.6056 104.204C39.8482 104.643 40.1702 104.988 40.5716 105.24C40.9822 105.492 41.4396 105.618 41.9436 105.618ZM51.1594 109.58C50.6461 109.58 50.1701 109.501 49.7314 109.342C49.3021 109.183 48.9287 108.964 48.6114 108.684C48.3034 108.413 48.0654 108.096 47.8974 107.732L48.8634 107.214C49.0127 107.569 49.2787 107.877 49.6614 108.138C50.0441 108.399 50.5341 108.53 51.1314 108.53C51.5887 108.53 52.0087 108.441 52.3914 108.264C52.7741 108.087 53.0821 107.825 53.3154 107.48C53.5487 107.135 53.6654 106.71 53.6654 106.206V104.54L53.8334 104.694C53.5721 105.235 53.1847 105.655 52.6714 105.954C52.1581 106.243 51.5981 106.388 50.9914 106.388C50.2914 106.388 49.6614 106.22 49.1014 105.884C48.5414 105.548 48.0981 105.095 47.7714 104.526C47.4541 103.947 47.2954 103.308 47.2954 102.608C47.2954 101.899 47.4541 101.259 47.7714 100.69C48.0981 100.121 48.5367 99.668 49.0874 99.332C49.6474 98.996 50.2821 98.828 50.9914 98.828C51.5981 98.828 52.1487 98.968 52.6434 99.248C53.1474 99.528 53.5441 99.906 53.8334 100.382L53.6654 100.676V98.996H54.7154V106.206C54.7154 106.85 54.5614 107.424 54.2534 107.928C53.9547 108.441 53.5347 108.843 52.9934 109.132C52.4614 109.431 51.8501 109.58 51.1594 109.58ZM51.0474 105.338C51.5327 105.338 51.9714 105.217 52.3634 104.974C52.7554 104.722 53.0681 104.391 53.3014 103.98C53.5441 103.56 53.6654 103.103 53.6654 102.608C53.6654 102.113 53.5441 101.661 53.3014 101.25C53.0681 100.83 52.7554 100.499 52.3634 100.256C51.9714 100.004 51.5327 99.878 51.0474 99.878C50.5527 99.878 50.1047 100.004 49.7034 100.256C49.3021 100.499 48.9847 100.825 48.7514 101.236C48.5274 101.647 48.4154 102.104 48.4154 102.608C48.4154 103.103 48.5274 103.56 48.7514 103.98C48.9847 104.391 49.2974 104.722 49.6894 104.974C50.0907 105.217 50.5434 105.338 51.0474 105.338ZM60.3869 106.668C59.6776 106.668 59.0336 106.5 58.4549 106.164C57.8763 105.819 57.4143 105.352 57.0689 104.764C56.7329 104.167 56.5649 103.49 56.5649 102.734C56.5649 101.987 56.7329 101.32 57.0689 100.732C57.4049 100.144 57.8576 99.682 58.4269 99.346C59.0056 99.0007 59.6589 98.828 60.3869 98.828C61.1149 98.828 61.7636 98.996 62.3329 99.332C62.9116 99.668 63.3643 100.13 63.6909 100.718C64.0269 101.306 64.1949 101.978 64.1949 102.734C64.1949 103.499 64.0223 104.181 63.6769 104.778C63.3316 105.366 62.8696 105.828 62.2909 106.164C61.7216 106.5 61.0869 106.668 60.3869 106.668ZM60.3869 105.618C60.8909 105.618 61.3436 105.492 61.7449 105.24C62.1556 104.988 62.4776 104.643 62.7109 104.204C62.9536 103.765 63.0749 103.275 63.0749 102.734C63.0749 102.193 62.9536 101.707 62.7109 101.278C62.4776 100.849 62.1556 100.508 61.7449 100.256C61.3436 100.004 60.8909 99.878 60.3869 99.878C59.8829 99.878 59.4256 100.004 59.0149 100.256C58.6136 100.508 58.2916 100.849 58.0489 101.278C57.8063 101.707 57.6849 102.193 57.6849 102.734C57.6849 103.275 57.8063 103.765 58.0489 104.204C58.2916 104.643 58.6136 104.988 59.0149 105.24C59.4256 105.492 59.8829 105.618 60.3869 105.618ZM64.9968 108.18L69.7288 96.644H70.9468L66.2148 108.18H64.9968ZM72.2027 106.5V96.07H73.3227V106.5H72.2027ZM75.6307 106.5V98.996H76.6807V100.424L76.5127 100.214C76.7181 99.7753 77.0214 99.4347 77.4227 99.192C77.8334 98.9493 78.2814 98.828 78.7667 98.828C79.3454 98.828 79.8681 98.9913 80.3347 99.318C80.8014 99.6447 81.1327 100.069 81.3287 100.592L81.0347 100.606C81.2214 100.027 81.5434 99.5887 82.0007 99.29C82.4674 98.982 82.9807 98.828 83.5407 98.828C84.0447 98.828 84.5067 98.9493 84.9267 99.192C85.3561 99.4347 85.6967 99.7707 85.9487 100.2C86.2101 100.62 86.3407 101.096 86.3407 101.628V106.5H85.2907V102.034C85.2907 101.577 85.2067 101.189 85.0387 100.872C84.8801 100.555 84.6607 100.312 84.3807 100.144C84.1007 99.9667 83.7787 99.878 83.4147 99.878C83.0601 99.878 82.7381 99.9667 82.4487 100.144C82.1594 100.312 81.9307 100.559 81.7627 100.886C81.5947 101.203 81.5107 101.586 81.5107 102.034V106.5H80.4607V102.034C80.4607 101.577 80.3767 101.189 80.2087 100.872C80.0501 100.555 79.8307 100.312 79.5507 100.144C79.2707 99.9667 78.9487 99.878 78.5847 99.878C78.2207 99.878 77.8941 99.9667 77.6047 100.144C77.3247 100.312 77.1007 100.559 76.9327 100.886C76.7647 101.203 76.6807 101.586 76.6807 102.034V106.5H75.6307ZM90.5156 106.668C90.0396 106.668 89.6149 106.579 89.2416 106.402C88.8682 106.215 88.5742 105.963 88.3596 105.646C88.1449 105.329 88.0376 104.965 88.0376 104.554C88.0376 104.162 88.1216 103.807 88.2896 103.49C88.4576 103.163 88.7189 102.888 89.0736 102.664C89.4282 102.44 89.8809 102.281 90.4316 102.188L93.3716 101.698V102.65L90.6836 103.098C90.1422 103.191 89.7502 103.364 89.5076 103.616C89.2742 103.868 89.1576 104.167 89.1576 104.512C89.1576 104.848 89.2882 105.133 89.5496 105.366C89.8202 105.599 90.1656 105.716 90.5856 105.716C91.0989 105.716 91.5469 105.609 91.9296 105.394C92.3122 105.17 92.6109 104.871 92.8256 104.498C93.0402 104.125 93.1476 103.709 93.1476 103.252V101.348C93.1476 100.9 92.9842 100.536 92.6576 100.256C92.3309 99.976 91.9062 99.836 91.3836 99.836C90.9262 99.836 90.5249 99.9527 90.1796 100.186C89.8342 100.41 89.5776 100.704 89.4096 101.068L88.4576 100.55C88.5976 100.233 88.8169 99.9433 89.1156 99.682C89.4236 99.4207 89.7736 99.2153 90.1656 99.066C90.5576 98.9073 90.9636 98.828 91.3836 98.828C91.9342 98.828 92.4196 98.9353 92.8396 99.15C93.2689 99.3647 93.6002 99.6633 93.8336 100.046C94.0762 100.419 94.1976 100.853 94.1976 101.348V106.5H93.1476V105.002L93.3016 105.156C93.1709 105.436 92.9656 105.693 92.6856 105.926C92.4149 106.15 92.0929 106.332 91.7196 106.472C91.3556 106.603 90.9542 106.668 90.5156 106.668ZM99.9133 109.58C99.4 109.58 98.924 109.501 98.4853 109.342C98.056 109.183 97.6826 108.964 97.3653 108.684C97.0573 108.413 96.8193 108.096 96.6513 107.732L97.6173 107.214C97.7666 107.569 98.0326 107.877 98.4153 108.138C98.798 108.399 99.288 108.53 99.8853 108.53C100.343 108.53 100.763 108.441 101.145 108.264C101.528 108.087 101.836 107.825 102.069 107.48C102.303 107.135 102.419 106.71 102.419 106.206V104.54L102.587 104.694C102.326 105.235 101.939 105.655 101.425 105.954C100.912 106.243 100.352 106.388 99.7453 106.388C99.0453 106.388 98.4153 106.22 97.8553 105.884C97.2953 105.548 96.852 105.095 96.5253 104.526C96.208 103.947 96.0493 103.308 96.0493 102.608C96.0493 101.899 96.208 101.259 96.5253 100.69C96.852 100.121 97.2906 99.668 97.8413 99.332C98.4013 98.996 99.036 98.828 99.7453 98.828C100.352 98.828 100.903 98.968 101.397 99.248C101.901 99.528 102.298 99.906 102.587 100.382L102.419 100.676V98.996H103.469V106.206C103.469 106.85 103.315 107.424 103.007 107.928C102.709 108.441 102.289 108.843 101.747 109.132C101.215 109.431 100.604 109.58 99.9133 109.58ZM99.8013 105.338C100.287 105.338 100.725 105.217 101.117 104.974C101.509 104.722 101.822 104.391 102.055 103.98C102.298 103.56 102.419 103.103 102.419 102.608C102.419 102.113 102.298 101.661 102.055 101.25C101.822 100.83 101.509 100.499 101.117 100.256C100.725 100.004 100.287 99.878 99.8013 99.878C99.3066 99.878 98.8586 100.004 98.4573 100.256C98.056 100.499 97.7386 100.825 97.5053 101.236C97.2813 101.647 97.1693 102.104 97.1693 102.608C97.1693 103.103 97.2813 103.56 97.5053 103.98C97.7386 104.391 98.0513 104.722 98.4433 104.974C98.8446 105.217 99.2973 105.338 99.8013 105.338ZM109.043 106.668C108.343 106.668 107.708 106.5 107.139 106.164C106.579 105.819 106.135 105.347 105.809 104.75C105.482 104.153 105.319 103.476 105.319 102.72C105.319 101.964 105.477 101.297 105.795 100.718C106.112 100.13 106.541 99.668 107.083 99.332C107.633 98.996 108.249 98.828 108.931 98.828C109.472 98.828 109.953 98.9307 110.373 99.136C110.802 99.332 111.166 99.6027 111.465 99.948C111.763 100.284 111.992 100.667 112.151 101.096C112.309 101.516 112.389 101.95 112.389 102.398C112.389 102.491 112.384 102.599 112.375 102.72C112.365 102.832 112.351 102.949 112.333 103.07H105.991V102.09H111.731L111.227 102.51C111.311 101.997 111.25 101.539 111.045 101.138C110.849 100.727 110.564 100.405 110.191 100.172C109.817 99.9293 109.397 99.808 108.931 99.808C108.464 99.808 108.03 99.9293 107.629 100.172C107.237 100.415 106.929 100.755 106.705 101.194C106.481 101.623 106.392 102.137 106.439 102.734C106.392 103.331 106.485 103.854 106.719 104.302C106.961 104.741 107.288 105.081 107.699 105.324C108.119 105.567 108.567 105.688 109.043 105.688C109.593 105.688 110.055 105.557 110.429 105.296C110.802 105.035 111.105 104.708 111.339 104.316L112.235 104.792C112.085 105.128 111.857 105.441 111.549 105.73C111.241 106.01 110.872 106.239 110.443 106.416C110.023 106.584 109.556 106.668 109.043 106.668Z" fill="#C6C6C6"/>
<path d="M18.1 129.9C17.5733 129.3 17.17 128.623 16.89 127.87C16.6167 127.117 16.48 126.317 16.48 125.47C16.48 124.617 16.6167 123.817 16.89 123.07C17.17 122.317 17.5733 121.643 18.1 121.05H18.75C18.27 121.717 17.9033 122.427 17.65 123.18C17.4033 123.933 17.28 124.697 17.28 125.47C17.28 126.243 17.4033 127.007 17.65 127.76C17.9033 128.513 18.27 129.227 18.75 129.9H18.1ZM19.5292 128.5V128L21.6092 125.71C22.0159 125.263 22.3459 124.893 22.5992 124.6C22.8592 124.307 23.0526 124.04 23.1792 123.8C23.3059 123.56 23.3692 123.3 23.3692 123.02C23.3692 122.573 23.2392 122.23 22.9792 121.99C22.7192 121.75 22.3726 121.63 21.9392 121.63C21.4926 121.63 21.1159 121.757 20.8092 122.01C20.5092 122.263 20.3059 122.617 20.1992 123.07L19.4692 122.91C19.5559 122.503 19.7126 122.153 19.9392 121.86C20.1659 121.567 20.4492 121.34 20.7892 121.18C21.1292 121.013 21.5092 120.93 21.9292 120.93C22.3759 120.93 22.7659 121.02 23.0992 121.2C23.4326 121.38 23.6926 121.627 23.8792 121.94C24.0726 122.253 24.1692 122.613 24.1692 123.02C24.1692 123.3 24.1092 123.57 23.9892 123.83C23.8759 124.09 23.7026 124.37 23.4692 124.67C23.2359 124.97 22.9359 125.32 22.5692 125.72L20.6792 127.8H24.3692V128.5H19.5292ZM28.6153 128.62C28.0286 128.62 27.512 128.46 27.0653 128.14C26.6253 127.813 26.282 127.363 26.0353 126.79C25.7886 126.21 25.6653 125.537 25.6653 124.77C25.6653 124.003 25.7886 123.333 26.0353 122.76C26.282 122.18 26.6253 121.73 27.0653 121.41C27.5053 121.09 28.0186 120.93 28.6053 120.93C29.192 120.93 29.7053 121.09 30.1453 121.41C30.5853 121.73 30.9286 122.18 31.1753 122.76C31.422 123.333 31.5453 124.003 31.5453 124.77C31.5453 125.537 31.422 126.21 31.1753 126.79C30.9353 127.37 30.5953 127.82 30.1553 128.14C29.7153 128.46 29.202 128.62 28.6153 128.62ZM28.6153 127.87C29.042 127.87 29.4153 127.74 29.7353 127.48C30.0553 127.22 30.3053 126.86 30.4853 126.4C30.6653 125.933 30.7553 125.39 30.7553 124.77C30.7553 124.15 30.6653 123.61 30.4853 123.15C30.3053 122.683 30.0553 122.323 29.7353 122.07C29.4153 121.81 29.0386 121.68 28.6053 121.68C28.1786 121.68 27.8053 121.81 27.4853 122.07C27.1653 122.323 26.9153 122.683 26.7353 123.15C26.5553 123.61 26.4653 124.15 26.4653 124.77C26.4653 125.383 26.5553 125.923 26.7353 126.39C26.9153 126.857 27.1653 127.22 27.4853 127.48C27.812 127.74 28.1886 127.87 28.6153 127.87ZM35.9395 128.62C35.3529 128.62 34.8362 128.46 34.3895 128.14C33.9495 127.813 33.6062 127.363 33.3595 126.79C33.1129 126.21 32.9895 125.537 32.9895 124.77C32.9895 124.003 33.1129 123.333 33.3595 122.76C33.6062 122.18 33.9495 121.73 34.3895 121.41C34.8295 121.09 35.3429 120.93 35.9295 120.93C36.5162 120.93 37.0295 121.09 37.4695 121.41C37.9095 121.73 38.2529 122.18 38.4995 122.76C38.7462 123.333 38.8695 124.003 38.8695 124.77C38.8695 125.537 38.7462 126.21 38.4995 126.79C38.2595 127.37 37.9195 127.82 37.4795 128.14C37.0395 128.46 36.5262 128.62 35.9395 128.62ZM35.9395 127.87C36.3662 127.87 36.7395 127.74 37.0595 127.48C37.3795 127.22 37.6295 126.86 37.8095 126.4C37.9895 125.933 38.0795 125.39 38.0795 124.77C38.0795 124.15 37.9895 123.61 37.8095 123.15C37.6295 122.683 37.3795 122.323 37.0595 122.07C36.7395 121.81 36.3629 121.68 35.9295 121.68C35.5029 121.68 35.1295 121.81 34.8095 122.07C34.4895 122.323 34.2395 122.683 34.0595 123.15C33.8795 123.61 33.7895 124.15 33.7895 124.77C33.7895 125.383 33.8795 125.923 34.0595 126.39C34.2395 126.857 34.4895 127.22 34.8095 127.48C35.1362 127.74 35.5129 127.87 35.9395 127.87ZM41.1138 124.67L40.5338 124.25L41.3938 123.11L40.1238 122.68L40.3438 122L41.6238 122.42V121.05H42.3438V122.42L43.6238 122L43.8438 122.68L42.5738 123.11L43.4338 124.25L42.8538 124.67L41.9838 123.53L41.1138 124.67ZM44.9589 128.5V128L47.0389 125.71C47.4456 125.263 47.7756 124.893 48.0289 124.6C48.2889 124.307 48.4822 124.04 48.6089 123.8C48.7356 123.56 48.7989 123.3 48.7989 123.02C48.7989 122.573 48.6689 122.23 48.4089 121.99C48.1489 121.75 47.8022 121.63 47.3689 121.63C46.9222 121.63 46.5456 121.757 46.2389 122.01C45.9389 122.263 45.7356 122.617 45.6289 123.07L44.8989 122.91C44.9856 122.503 45.1422 122.153 45.3689 121.86C45.5956 121.567 45.8789 121.34 46.2189 121.18C46.5589 121.013 46.9389 120.93 47.3589 120.93C47.8056 120.93 48.1956 121.02 48.5289 121.2C48.8622 121.38 49.1222 121.627 49.3089 121.94C49.5022 122.253 49.5989 122.613 49.5989 123.02C49.5989 123.3 49.5389 123.57 49.4189 123.83C49.3056 124.09 49.1322 124.37 48.8989 124.67C48.6656 124.97 48.3656 125.32 47.9989 125.72L46.1089 127.8H49.7989V128.5H44.9589ZM54.045 128.62C53.4583 128.62 52.9417 128.46 52.495 128.14C52.055 127.813 51.7117 127.363 51.465 126.79C51.2183 126.21 51.095 125.537 51.095 124.77C51.095 124.003 51.2183 123.333 51.465 122.76C51.7117 122.18 52.055 121.73 52.495 121.41C52.935 121.09 53.4483 120.93 54.035 120.93C54.6217 120.93 55.135 121.09 55.575 121.41C56.015 121.73 56.3583 122.18 56.605 122.76C56.8517 123.333 56.975 124.003 56.975 124.77C56.975 125.537 56.8517 126.21 56.605 126.79C56.365 127.37 56.025 127.82 55.585 128.14C55.145 128.46 54.6317 128.62 54.045 128.62ZM54.045 127.87C54.4717 127.87 54.845 127.74 55.165 127.48C55.485 127.22 55.735 126.86 55.915 126.4C56.095 125.933 56.185 125.39 56.185 124.77C56.185 124.15 56.095 123.61 55.915 123.15C55.735 122.683 55.485 122.323 55.165 122.07C54.845 121.81 54.4683 121.68 54.035 121.68C53.6083 121.68 53.235 121.81 52.915 122.07C52.595 122.323 52.345 122.683 52.165 123.15C51.985 123.61 51.895 124.15 51.895 124.77C51.895 125.383 51.985 125.923 52.165 126.39C52.345 126.857 52.595 127.22 52.915 127.48C53.2417 127.74 53.6183 127.87 54.045 127.87ZM61.3692 128.62C60.7826 128.62 60.2659 128.46 59.8192 128.14C59.3792 127.813 59.0359 127.363 58.7892 126.79C58.5426 126.21 58.4192 125.537 58.4192 124.77C58.4192 124.003 58.5426 123.333 58.7892 122.76C59.0359 122.18 59.3792 121.73 59.8192 121.41C60.2592 121.09 60.7726 120.93 61.3592 120.93C61.9459 120.93 62.4592 121.09 62.8992 121.41C63.3392 121.73 63.6826 122.18 63.9292 122.76C64.1759 123.333 64.2992 124.003 64.2992 124.77C64.2992 125.537 64.1759 126.21 63.9292 126.79C63.6892 127.37 63.3492 127.82 62.9092 128.14C62.4692 128.46 61.9559 128.62 61.3692 128.62ZM61.3692 127.87C61.7959 127.87 62.1692 127.74 62.4892 127.48C62.8092 127.22 63.0592 126.86 63.2392 126.4C63.4192 125.933 63.5092 125.39 63.5092 124.77C63.5092 124.15 63.4192 123.61 63.2392 123.15C63.0592 122.683 62.8092 122.323 62.4892 122.07C62.1692 121.81 61.7926 121.68 61.3592 121.68C60.9326 121.68 60.5592 121.81 60.2392 122.07C59.9192 122.323 59.6692 122.683 59.4892 123.15C59.3092 123.61 59.2192 124.15 59.2192 124.77C59.2192 125.383 59.3092 125.923 59.4892 126.39C59.6692 126.857 59.9192 127.22 60.2392 127.48C60.5659 127.74 60.9426 127.87 61.3692 127.87ZM67.6027 128.5V121.05H70.1627C70.6493 121.05 71.076 121.147 71.4427 121.34C71.8093 121.527 72.0927 121.793 72.2927 122.14C72.4993 122.48 72.6027 122.877 72.6027 123.33C72.6027 123.783 72.4993 124.18 72.2927 124.52C72.0927 124.86 71.8093 125.127 71.4427 125.32C71.0827 125.507 70.656 125.6 70.1627 125.6H68.4027V128.5H67.6027ZM68.4027 124.85H70.2027C70.5227 124.85 70.8027 124.79 71.0427 124.67C71.2827 124.543 71.4693 124.367 71.6027 124.14C71.736 123.907 71.8027 123.633 71.8027 123.32C71.8027 123.007 71.736 122.737 71.6027 122.51C71.4693 122.283 71.2827 122.11 71.0427 121.99C70.8027 121.863 70.5227 121.8 70.2027 121.8H68.4027V124.85ZM73.9184 128.5V123.14H74.6684V128.5H73.9184ZM73.9184 122.15V121.05H74.6684V122.15H73.9184ZM75.5436 128.5L77.4236 125.82L75.5536 123.14H76.4736L78.1336 125.55H77.6236L79.2736 123.14H80.1936L78.3236 125.82L80.1936 128.5H79.2736L77.6236 126.09H78.1336L76.4736 128.5H75.5436ZM83.3213 128.62C82.8213 128.62 82.368 128.5 81.9613 128.26C81.5613 128.013 81.2447 127.677 81.0113 127.25C80.778 126.823 80.6613 126.34 80.6613 125.8C80.6613 125.26 80.7747 124.783 81.0013 124.37C81.228 123.95 81.5347 123.62 81.9213 123.38C82.3147 123.14 82.7547 123.02 83.2413 123.02C83.628 123.02 83.9713 123.093 84.2713 123.24C84.578 123.38 84.838 123.573 85.0513 123.82C85.2647 124.06 85.428 124.333 85.5413 124.64C85.6547 124.94 85.7113 125.25 85.7113 125.57C85.7113 125.637 85.708 125.713 85.7013 125.8C85.6947 125.88 85.6847 125.963 85.6713 126.05H81.1413V125.35H85.2413L84.8813 125.65C84.9413 125.283 84.898 124.957 84.7513 124.67C84.6113 124.377 84.408 124.147 84.1413 123.98C83.8747 123.807 83.5747 123.72 83.2413 123.72C82.908 123.72 82.598 123.807 82.3113 123.98C82.0313 124.153 81.8113 124.397 81.6513 124.71C81.4913 125.017 81.428 125.383 81.4613 125.81C81.428 126.237 81.4947 126.61 81.6613 126.93C81.8347 127.243 82.068 127.487 82.3613 127.66C82.6613 127.833 82.9813 127.92 83.3213 127.92C83.7147 127.92 84.0447 127.827 84.3113 127.64C84.578 127.453 84.7947 127.22 84.9613 126.94L85.6013 127.28C85.4947 127.52 85.3313 127.743 85.1113 127.95C84.8913 128.15 84.628 128.313 84.3213 128.44C84.0213 128.56 83.688 128.62 83.3213 128.62ZM87.0337 128.5V120.93H87.7837V128.5H87.0337ZM91.1788 128.62C90.6655 128.62 90.2155 128.49 89.8288 128.23C89.4422 127.97 89.1622 127.617 88.9888 127.17L89.6188 126.87C89.7722 127.197 89.9855 127.457 90.2588 127.65C90.5388 127.843 90.8455 127.94 91.1788 127.94C91.4988 127.94 91.7688 127.863 91.9888 127.71C92.2088 127.55 92.3188 127.343 92.3188 127.09C92.3188 126.903 92.2655 126.757 92.1588 126.65C92.0522 126.537 91.9288 126.45 91.7888 126.39C91.6488 126.33 91.5255 126.287 91.4188 126.26L90.6488 126.04C90.1555 125.9 89.7988 125.703 89.5788 125.45C89.3588 125.197 89.2488 124.903 89.2488 124.57C89.2488 124.257 89.3288 123.983 89.4888 123.75C89.6488 123.517 89.8655 123.337 90.1388 123.21C90.4122 123.083 90.7155 123.02 91.0488 123.02C91.5022 123.02 91.9122 123.14 92.2788 123.38C92.6522 123.613 92.9155 123.94 93.0688 124.36L92.4288 124.66C92.2955 124.36 92.1022 124.127 91.8488 123.96C91.6022 123.787 91.3255 123.7 91.0188 123.7C90.7188 123.7 90.4788 123.777 90.2988 123.93C90.1188 124.083 90.0288 124.277 90.0288 124.51C90.0288 124.69 90.0755 124.833 90.1688 124.94C90.2622 125.047 90.3688 125.127 90.4888 125.18C90.6155 125.233 90.7255 125.273 90.8188 125.3L91.7088 125.56C92.1422 125.687 92.4788 125.883 92.7188 126.15C92.9655 126.417 93.0888 126.73 93.0888 127.09C93.0888 127.383 93.0055 127.647 92.8388 127.88C92.6788 128.113 92.4555 128.297 92.1688 128.43C91.8822 128.557 91.5522 128.62 91.1788 128.62ZM93.8367 129.9C94.3167 129.227 94.6801 128.513 94.9267 127.76C95.1801 127.007 95.3067 126.243 95.3067 125.47C95.3067 124.697 95.1801 123.933 94.9267 123.18C94.6801 122.427 94.3167 121.717 93.8367 121.05H94.4867C95.0201 121.643 95.4234 122.317 95.6967 123.07C95.9701 123.817 96.1067 124.617 96.1067 125.47C96.1067 126.317 95.9701 127.117 95.6967 127.87C95.4234 128.623 95.0201 129.3 94.4867 129.9H93.8367Z" fill="#C6C6C6"/>
<path d="M28 13.5C28.553 13.5 29 13.053 29 12.5V2.5H39C39.553 2.5 40 2.053 40 1.5C40 0.947 39.553 0.5 39 0.5H29C27.897 0.5 27 1.397 27 2.5V12.5C27 13.053 27.447 13.5 28 13.5Z" fill="#C6C6C6"/>
<path d="M39 58.5H29V48.5C29 47.947 28.553 47.5 28 47.5C27.447 47.5 27 47.947 27 48.5V58.5C27 59.603 27.897 60.5 29 60.5H39C39.553 60.5 40 60.053 40 59.5C40 58.947 39.553 58.5 39 58.5Z" fill="#C6C6C6"/>
<path d="M86 47.5C85.447 47.5 85 47.947 85 48.5V58.5H75C74.447 58.5 74 58.947 74 59.5C74 60.053 74.447 60.5 75 60.5H85C86.103 60.5 87 59.603 87 58.5V48.5C87 47.947 86.553 47.5 86 47.5Z" fill="#C6C6C6"/>
<path d="M85 0.5H75C74.447 0.5 74 0.947 74 1.5C74 2.053 74.447 2.5 75 2.5H85V12.5C85 13.053 85.447 13.5 86 13.5C86.553 13.5 87 13.053 87 12.5V2.5C87 1.397 86.103 0.5 85 0.5Z" fill="#C6C6C6"/>
<path d="M31 31.5C31 32.053 31.447 32.5 32 32.5C32.553 32.5 33 32.053 33 31.5V29.5C33 28.947 32.553 28.5 32 28.5C31.447 28.5 31 28.947 31 29.5V31.5Z" fill="#C6C6C6"/>
<path d="M31 25.5C31 26.053 31.447 26.5 32 26.5C32.553 26.5 33 26.053 33 25.5V23.5C33 22.947 32.553 22.5 32 22.5C31.447 22.5 31 22.947 31 23.5V25.5Z" fill="#C6C6C6"/>
<path d="M31 19.5C31 20.053 31.447 20.5 32 20.5C32.553 20.5 33 20.053 33 19.5V17.5C33 16.947 32.553 16.5 32 16.5C31.447 16.5 31 16.947 31 17.5V19.5Z" fill="#C6C6C6"/>
<path d="M32 14.5C32.553 14.5 33 14.053 33 13.5V11.5C33 10.947 32.553 10.5 32 10.5C31.447 10.5 31 10.947 31 11.5V13.5C31 14.053 31.447 14.5 32 14.5Z" fill="#C6C6C6"/>
<path d="M56 6.5H58C58.553 6.5 59 6.053 59 5.5C59 4.947 58.553 4.5 58 4.5H56C55.447 4.5 55 4.947 55 5.5C55 6.053 55.447 6.5 56 6.5Z" fill="#C6C6C6"/>
<path d="M50 6.5H52C52.553 6.5 53 6.053 53 5.5C53 4.947 52.553 4.5 52 4.5H50C49.447 4.5 49 4.947 49 5.5C49 6.053 49.447 6.5 50 6.5Z" fill="#C6C6C6"/>
<path d="M44 6.5H46C46.553 6.5 47 6.053 47 5.5C47 4.947 46.553 4.5 46 4.5H44C43.447 4.5 43 4.947 43 5.5C43 6.053 43.447 6.5 44 6.5Z" fill="#C6C6C6"/>
<path d="M38 4.5C37.447 4.5 37 4.947 37 5.5C37 6.053 37.447 6.5 38 6.5H40C40.553 6.5 41 6.053 41 5.5C41 4.947 40.553 4.5 40 4.5H38Z" fill="#C6C6C6"/>
<path d="M34 4.5H32C31.447 4.5 31 4.947 31 5.5V7.5C31 8.053 31.447 8.5 32 8.5C32.553 8.5 33 8.053 33 7.5V6.5H34C34.553 6.5 35 6.053 35 5.5C35 4.947 34.553 4.5 34 4.5Z" fill="#C6C6C6"/>
<path d="M52 54.5H50C49.447 54.5 49 54.947 49 55.5C49 56.053 49.447 56.5 50 56.5H52C52.553 56.5 53 56.053 53 55.5C53 54.947 52.553 54.5 52 54.5Z" fill="#C6C6C6"/>
<path d="M46 54.5H44C43.447 54.5 43 54.947 43 55.5C43 56.053 43.447 56.5 44 56.5H46C46.553 56.5 47 56.053 47 55.5C47 54.947 46.553 54.5 46 54.5Z" fill="#C6C6C6"/>
<path d="M40 54.5H38C37.447 54.5 37 54.947 37 55.5C37 56.053 37.447 56.5 38 56.5H40C40.553 56.5 41 56.053 41 55.5C41 54.947 40.553 54.5 40 54.5Z" fill="#C6C6C6"/>
<path d="M31 37.5C31 38.053 31.447 38.5 32 38.5C32.553 38.5 33 38.053 33 37.5V35.5C33 34.947 32.553 34.5 32 34.5C31.447 34.5 31 34.947 31 35.5V37.5Z" fill="#C6C6C6"/>
<path d="M31 43.5C31 44.053 31.447 44.5 32 44.5C32.553 44.5 33 44.053 33 43.5V41.5C33 40.947 32.553 40.5 32 40.5C31.447 40.5 31 40.947 31 41.5V43.5Z" fill="#C6C6C6"/>
<path d="M31 49.5C31 50.053 31.447 50.5 32 50.5C32.553 50.5 33 50.053 33 49.5V47.5C33 46.947 32.553 46.5 32 46.5C31.447 46.5 31 46.947 31 47.5V49.5Z" fill="#C6C6C6"/>
<path d="M31 55.5C31 56.053 31.447 56.5 32 56.5H34C34.553 56.5 35 56.053 35 55.5C35 54.947 34.553 54.5 34 54.5H33V53.5C33 52.947 32.553 52.5 32 52.5C31.447 52.5 31 52.947 31 53.5V55.5Z" fill="#C6C6C6"/>
<path d="M83 35.5C83 34.947 82.553 34.5 82 34.5C81.447 34.5 81 34.947 81 35.5V37.5C81 38.053 81.447 38.5 82 38.5C82.553 38.5 83 38.053 83 37.5V35.5Z" fill="#C6C6C6"/>
<path d="M83 41.5C83 40.947 82.553 40.5 82 40.5C81.447 40.5 81 40.947 81 41.5V43.5C81 44.053 81.447 44.5 82 44.5C82.553 44.5 83 44.053 83 43.5V41.5Z" fill="#C6C6C6"/>
<path d="M82 46.5C81.447 46.5 81 46.947 81 47.5V49.5C81 50.053 81.447 50.5 82 50.5C82.553 50.5 83 50.053 83 49.5V47.5C83 46.947 82.553 46.5 82 46.5Z" fill="#C6C6C6"/>
<path d="M64 54.5H62C61.447 54.5 61 54.947 61 55.5C61 56.053 61.447 56.5 62 56.5H64C64.553 56.5 65 56.053 65 55.5C65 54.947 64.553 54.5 64 54.5Z" fill="#C6C6C6"/>
<path d="M70 54.5H68C67.447 54.5 67 54.947 67 55.5C67 56.053 67.447 56.5 68 56.5H70C70.553 56.5 71 56.053 71 55.5C71 54.947 70.553 54.5 70 54.5Z" fill="#C6C6C6"/>
<path d="M76 56.5C76.553 56.5 77 56.053 77 55.5C77 54.947 76.553 54.5 76 54.5H74C73.447 54.5 73 54.947 73 55.5C73 56.053 73.447 56.5 74 56.5H76Z" fill="#C6C6C6"/>
<path d="M80 56.5H82C82.553 56.5 83 56.053 83 55.5V53.5C83 52.947 82.553 52.5 82 52.5C81.447 52.5 81 52.947 81 53.5V54.5H80C79.447 54.5 79 54.947 79 55.5C79 56.053 79.447 56.5 80 56.5Z" fill="#C6C6C6"/>
<path d="M62 6.5H64C64.553 6.5 65 6.053 65 5.5C65 4.947 64.553 4.5 64 4.5H62C61.447 4.5 61 4.947 61 5.5C61 6.053 61.447 6.5 62 6.5Z" fill="#C6C6C6"/>
<path d="M68 6.5H70C70.553 6.5 71 6.053 71 5.5C71 4.947 70.553 4.5 70 4.5H68C67.447 4.5 67 4.947 67 5.5C67 6.053 67.447 6.5 68 6.5Z" fill="#C6C6C6"/>
<path d="M74 6.5H76C76.553 6.5 77 6.053 77 5.5C77 4.947 76.553 4.5 76 4.5H74C73.447 4.5 73 4.947 73 5.5C73 6.053 73.447 6.5 74 6.5Z" fill="#C6C6C6"/>
<path d="M83 23.5C83 22.947 82.553 22.5 82 22.5C81.447 22.5 81 22.947 81 23.5V25.5C81 26.053 81.447 26.5 82 26.5C82.553 26.5 83 26.053 83 25.5V23.5Z" fill="#C6C6C6"/>
<path d="M83 17.5C83 16.947 82.553 16.5 82 16.5C81.447 16.5 81 16.947 81 17.5V19.5C81 20.053 81.447 20.5 82 20.5C82.553 20.5 83 20.053 83 19.5V17.5Z" fill="#C6C6C6"/>
<path d="M83 11.5C83 10.947 82.553 10.5 82 10.5C81.447 10.5 81 10.947 81 11.5V13.5C81 14.053 81.447 14.5 82 14.5C82.553 14.5 83 14.053 83 13.5V11.5Z" fill="#C6C6C6"/>
<path d="M83 5.5C83 4.947 82.553 4.5 82 4.5H80C79.447 4.5 79 4.947 79 5.5C79 6.053 79.447 6.5 80 6.5H81V7.5C81 8.053 81.447 8.5 82 8.5C82.553 8.5 83 8.053 83 7.5V5.5Z" fill="#C6C6C6"/>
<path d="M58 54.5H56C55.447 54.5 55 54.947 55 55.5C55 56.053 55.447 56.5 56 56.5H58C58.553 56.5 59 56.053 59 55.5C59 54.947 58.553 54.5 58 54.5Z" fill="#C6C6C6"/>
<path d="M83 29.5C83 28.947 82.553 28.5 82 28.5C81.447 28.5 81 28.947 81 29.5V31.5C81 32.053 81.447 32.5 82 32.5C82.553 32.5 83 32.053 83 31.5V29.5Z" fill="#C6C6C6"/>
<path d="M58 28.5V21.5H56V28.5C56 29.053 55.553 29.5 55 29.5H48V31.5H55C55.553 31.5 56 31.947 56 32.5V39.5H58V32.5C58 31.947 58.447 31.5 59 31.5H66V29.503L59 29.5C58.447 29.5 58 29.053 58 28.5Z" fill="#C6C6C6"/>
<path d="M57 13.5C47.626 13.5 40 21.126 40 30.5C40 39.874 47.626 47.5 57 47.5C66.374 47.5 74 39.874 74 30.5C74 21.126 66.374 13.5 57 13.5ZM68 31.5C68 32.603 67.103 33.5 66 33.5H60V39.5C60 40.603 59.103 41.5 58 41.5H56C54.897 41.5 54 40.603 54 39.5V33.5H48C46.897 33.5 46 32.603 46 31.5V29.5C46 28.397 46.897 27.5 48 27.5H54V21.5C54 20.397 54.897 19.5 56 19.5H58C59.103 19.5 60 20.397 60 21.5V27.5H66C67.103 27.5 68 28.397 68 29.5V31.5Z" fill="#C6C6C6"/>
</svg>
